<svg width="1512" height="982" viewBox="0 0 1512 982" fill="none" xmlns="http://www.w3.org/2000/svg">
<g clip-path="url(#clip0_72_55)">
<rect width="1512" height="982" fill="url(#paint0_linear_72_55)"/>
<g opacity="0.1">
<g filter="url(#filter0_d_72_55)">
<rect x="157" y="694.608" width="490" height="560" transform="rotate(-43.3895 157 694.608)" fill="url(#paint1_radial_72_55)" fill-opacity="0.3" shape-rendering="crispEdges"/>
<rect x="154.88" y="694.548" width="493" height="563" transform="rotate(-43.3895 154.88 694.548)" stroke="#DAFFF6" stroke-opacity="0.4" stroke-width="3" shape-rendering="crispEdges"/>
</g>
<rect x="156.293" y="694.588" width="71" height="70" transform="rotate(-43.3895 156.293 694.588)" stroke="white" stroke-opacity="0.2"/>
<rect x="207.162" y="646.501" width="71" height="70" transform="rotate(-43.3895 207.162 646.501)" stroke="white" stroke-opacity="0.2"/>
<rect x="258.031" y="598.414" width="71" height="70" transform="rotate(-43.3895 258.031 598.414)" stroke="white" stroke-opacity="0.2"/>
<rect x="359.769" y="502.241" width="71" height="70" transform="rotate(-43.3895 359.769 502.241)" stroke="white" stroke-opacity="0.2"/>
<rect x="410.638" y="454.154" width="71" height="70" transform="rotate(-43.3895 410.638 454.154)" stroke="white" stroke-opacity="0.2"/>
<rect x="461.507" y="406.067" width="71" height="70" transform="rotate(-43.3895 461.507 406.067)" stroke="white" stroke-opacity="0.2"/>
<rect x="308.901" y="550.327" width="71" height="70" transform="rotate(-43.3895 308.901 550.327)" stroke="white" stroke-opacity="0.2"/>
<rect x="203.693" y="744.73" width="71" height="70" transform="rotate(-43.3895 203.693 744.73)" stroke="white" stroke-opacity="0.2"/>
<rect x="254.562" y="696.643" width="71" height="70" transform="rotate(-43.3895 254.562 696.643)" stroke="white" stroke-opacity="0.2"/>
<rect x="305.431" y="648.557" width="71" height="70" transform="rotate(-43.3895 305.431 648.557)" stroke="white" stroke-opacity="0.2"/>
<rect x="407.168" y="552.383" width="71" height="70" transform="rotate(-43.3895 407.168 552.383)" stroke="white" stroke-opacity="0.2"/>
<rect x="458.037" y="504.296" width="71" height="70" transform="rotate(-43.3895 458.037 504.296)" stroke="white" stroke-opacity="0.2"/>
<rect x="508.906" y="456.209" width="71" height="70" transform="rotate(-43.3895 508.906 456.209)" stroke="white" stroke-opacity="0.2"/>
<rect x="356.3" y="600.47" width="71" height="70" transform="rotate(-43.3895 356.3 600.47)" stroke="white" stroke-opacity="0.2"/>
<rect x="252.467" y="796.326" width="71" height="70" transform="rotate(-43.3895 252.467 796.326)" stroke="white" stroke-opacity="0.2"/>
<rect x="303.336" y="748.239" width="71" height="70" transform="rotate(-43.3895 303.336 748.239)" stroke="white" stroke-opacity="0.2"/>
<rect x="354.205" y="700.152" width="71" height="70" transform="rotate(-43.3895 354.205 700.152)" stroke="white" stroke-opacity="0.2"/>
<rect x="455.943" y="603.979" width="71" height="70" transform="rotate(-43.3895 455.943 603.979)" stroke="white" stroke-opacity="0.2"/>
<rect x="506.812" y="555.892" width="71" height="70" transform="rotate(-43.3895 506.812 555.892)" stroke="white" stroke-opacity="0.2"/>
<rect x="557.681" y="507.805" width="71" height="70" transform="rotate(-43.3895 557.681 507.805)" stroke="white" stroke-opacity="0.2"/>
<rect x="405.074" y="652.065" width="71" height="70" transform="rotate(-43.3895 405.074 652.065)" stroke="white" stroke-opacity="0.2"/>
<rect x="299.866" y="846.468" width="71" height="70" transform="rotate(-43.3895 299.866 846.468)" stroke="white" stroke-opacity="0.2"/>
<rect x="350.736" y="798.381" width="71" height="70" transform="rotate(-43.3895 350.736 798.381)" stroke="white" stroke-opacity="0.2"/>
<rect x="401.605" y="750.295" width="71" height="70" transform="rotate(-43.3895 401.605 750.295)" stroke="white" stroke-opacity="0.2"/>
<rect x="503.342" y="654.121" width="71" height="70" transform="rotate(-43.3895 503.342 654.121)" stroke="white" stroke-opacity="0.2"/>
<rect x="554.211" y="606.034" width="71" height="70" transform="rotate(-43.3895 554.211 606.034)" stroke="white" stroke-opacity="0.2"/>
<rect x="605.08" y="557.947" width="71" height="70" transform="rotate(-43.3895 605.08 557.947)" stroke="white" stroke-opacity="0.2"/>
<rect x="452.474" y="702.208" width="71" height="70" transform="rotate(-43.3895 452.474 702.208)" stroke="white" stroke-opacity="0.2"/>
<rect x="348.641" y="898.064" width="71" height="70" transform="rotate(-43.3895 348.641 898.064)" stroke="white" stroke-opacity="0.2"/>
<rect x="399.51" y="849.977" width="71" height="70" transform="rotate(-43.3895 399.51 849.977)" stroke="white" stroke-opacity="0.2"/>
<rect x="450.379" y="801.89" width="71" height="70" transform="rotate(-43.3895 450.379 801.89)" stroke="white" stroke-opacity="0.2"/>
<rect x="501.248" y="753.803" width="71" height="70" transform="rotate(-43.3895 501.248 753.803)" stroke="white" stroke-opacity="0.2"/>
<rect x="552.116" y="705.717" width="71" height="70" transform="rotate(-43.3895 552.116 705.717)" stroke="white" stroke-opacity="0.2"/>
<g filter="url(#filter1_d_72_55)">
<rect x="602.986" y="657.63" width="71" height="70" transform="rotate(-43.3895 602.986 657.63)" stroke="white" stroke-opacity="0.2" shape-rendering="crispEdges"/>
</g>
<rect x="653.855" y="609.543" width="71" height="70" transform="rotate(-43.3895 653.855 609.543)" stroke="white" stroke-opacity="0.2"/>
<rect x="396.04" y="948.206" width="71" height="70" transform="rotate(-43.3895 396.04 948.206)" stroke="white" stroke-opacity="0.2"/>
<rect x="446.909" y="900.119" width="71" height="70" transform="rotate(-43.3895 446.909 900.119)" stroke="white" stroke-opacity="0.2"/>
<rect x="497.779" y="852.033" width="71" height="70" transform="rotate(-43.3895 497.779 852.033)" stroke="white" stroke-opacity="0.2"/>
<rect x="548.648" y="803.946" width="71" height="70" transform="rotate(-43.3895 548.648 803.946)" stroke="white" stroke-opacity="0.2"/>
<rect x="599.516" y="755.859" width="71" height="70" transform="rotate(-43.3895 599.516 755.859)" stroke="white" stroke-opacity="0.2"/>
<rect x="650.385" y="707.772" width="71" height="70" transform="rotate(-43.3895 650.385 707.772)" stroke="white" stroke-opacity="0.2"/>
<rect x="701.254" y="659.685" width="71" height="70" transform="rotate(-43.3895 701.254 659.685)" stroke="white" stroke-opacity="0.2"/>
<rect x="444.127" y="999.075" width="71" height="70" transform="rotate(-43.3895 444.127 999.075)" stroke="white" stroke-opacity="0.2"/>
<rect x="494.996" y="950.988" width="71" height="70" transform="rotate(-43.3895 494.996 950.988)" stroke="white" stroke-opacity="0.2"/>
<rect x="545.865" y="902.902" width="71" height="70" transform="rotate(-43.3895 545.865 902.902)" stroke="white" stroke-opacity="0.2"/>
<rect x="596.735" y="854.815" width="71" height="70" transform="rotate(-43.3895 596.735 854.815)" stroke="white" stroke-opacity="0.2"/>
<rect x="647.603" y="806.728" width="71" height="70" transform="rotate(-43.3895 647.603 806.728)" stroke="white" stroke-opacity="0.2"/>
<rect x="698.472" y="758.641" width="71" height="70" transform="rotate(-43.3895 698.472 758.641)" stroke="white" stroke-opacity="0.2"/>
<rect x="749.341" y="710.554" width="71" height="70" transform="rotate(-43.3895 749.341 710.554)" stroke="white" stroke-opacity="0.2"/>
<rect x="543.77" y="1002.58" width="71" height="70" transform="rotate(-43.3895 543.77 1002.58)" stroke="white" stroke-opacity="0.2"/>
<rect x="594.639" y="954.497" width="71" height="70" transform="rotate(-43.3895 594.639 954.497)" stroke="white" stroke-opacity="0.2"/>
<rect x="645.508" y="906.411" width="71" height="70" transform="rotate(-43.3895 645.508 906.411)" stroke="white" stroke-opacity="0.2"/>
<rect x="696.376" y="858.324" width="71" height="70" transform="rotate(-43.3895 696.376 858.324)" stroke="white" stroke-opacity="0.2"/>
<rect x="747.245" y="810.237" width="71" height="70" transform="rotate(-43.3895 747.245 810.237)" stroke="white" stroke-opacity="0.2"/>
<rect x="798.114" y="762.15" width="71" height="70" transform="rotate(-43.3895 798.114 762.15)" stroke="white" stroke-opacity="0.2"/>
</g>
<g opacity="0.1" filter="url(#filter2_d_72_55)">
<rect x="71.2926" y="141.381" width="69" height="69" transform="rotate(-5.26814 71.2926 141.381)" fill="#277FFD" stroke="#C9CBFF" stroke-width="4"/>
<rect x="140.998" y="134.954" width="69" height="69" transform="rotate(-5.26814 140.998 134.954)" fill="#277FFD" stroke="#C9CBFF" stroke-width="4"/>
<path d="M136.653 66.0619L134.662 66.2456L134.845 68.2371L140.813 132.963L140.997 134.954L142.989 134.77L207.714 128.802L209.706 128.619L209.522 126.627L203.554 61.9018L203.37 59.9102L201.379 60.0938L136.653 66.0619Z" fill="#277FFD" stroke="#C9CBFF" stroke-width="4"/>
</g>
<g opacity="0.1" filter="url(#filter3_d_72_55)">
<rect x="1323.88" y="683.05" width="69" height="69" transform="rotate(29.1439 1323.88 683.05)" fill="#E92B27" stroke="#FFCCC9" stroke-width="4"/>
<rect x="1355.54" y="626.279" width="69" height="69" transform="rotate(29.1439 1355.54 626.279)" fill="#E92B27" stroke="#FFCCC9" stroke-width="4"/>
<rect x="1385.02" y="717.14" width="69" height="69" transform="rotate(29.1439 1385.02 717.14)" fill="#E92B27" stroke="#FFCCC9" stroke-width="4"/>
<path d="M1418.42 661.344L1416.68 660.37L1415.7 662.116L1384.05 718.887L1383.07 720.634L1384.82 721.608L1441.59 753.263L1443.34 754.237L1444.31 752.491L1475.97 695.72L1476.94 693.973L1475.19 692.999L1418.42 661.344Z" fill="#E92B27" stroke="#FFCCC9" stroke-width="4"/>
</g>
<g opacity="0.1">
<g filter="url(#filter4_d_72_55)">
<rect x="1115.07" y="137" width="65" height="65" transform="rotate(13.4096 1115.07 137)" fill="#FBBA24"/>
<rect x="1113.59" y="134.591" width="69" height="69" transform="rotate(13.4096 1113.59 134.591)" stroke="#FFEFC9" stroke-width="4"/>
</g>
<g filter="url(#filter5_d_72_55)">
<rect x="1183.17" y="153.234" width="65" height="65" transform="rotate(13.4096 1183.17 153.234)" fill="#FBBA24"/>
<rect x="1181.68" y="150.824" width="69" height="69" transform="rotate(13.4096 1181.68 150.824)" stroke="#FFEFC9" stroke-width="4"/>
</g>
</g>
</g>
<defs>
<filter id="filter0_d_72_55" x="140.759" y="347.759" width="769.26" height="772.042" filterUnits="userSpaceOnUse" color-interpolation-filters="sRGB">
<feFlood flood-opacity="0" result="BackgroundImageFix"/>
<feColorMatrix in="SourceAlpha" type="matrix" values="0 0 0 0 0 0 0 0 0 0 0 0 0 0 0 0 0 0 127 0" result="hardAlpha"/>
<feOffset dx="-2" dy="4"/>
<feGaussianBlur stdDeviation="5"/>
<feComposite in2="hardAlpha" operator="out"/>
<feColorMatrix type="matrix" values="0 0 0 0 1 0 0 0 0 1 0 0 0 0 1 0 0 0 0.25 0"/>
<feBlend mode="normal" in2="BackgroundImageFix" result="effect1_dropShadow_72_55"/>
<feBlend mode="normal" in="SourceGraphic" in2="effect1_dropShadow_72_55" result="shape"/>
</filter>
<filter id="filter1_d_72_55" x="590.278" y="602.149" width="121.097" height="121.056" filterUnits="userSpaceOnUse" color-interpolation-filters="sRGB">
<feFlood flood-opacity="0" result="BackgroundImageFix"/>
<feColorMatrix in="SourceAlpha" type="matrix" values="0 0 0 0 0 0 0 0 0 0 0 0 0 0 0 0 0 0 127 0" result="hardAlpha"/>
<feOffset dx="-2" dy="4"/>
<feGaussianBlur stdDeviation="5"/>
<feComposite in2="hardAlpha" operator="out"/>
<feColorMatrix type="matrix" values="0 0 0 0 1 0 0 0 0 1 0 0 0 0 1 0 0 0 0.25 0"/>
<feBlend mode="normal" in2="BackgroundImageFix" result="effect1_dropShadow_72_55"/>
<feBlend mode="normal" in="SourceGraphic" in2="effect1_dropShadow_72_55" result="shape"/>
</filter>
<filter id="filter2_d_72_55" x="44.1172" y="32.735" width="199.1" height="204.53" filterUnits="userSpaceOnUse" color-interpolation-filters="sRGB">
<feFlood flood-opacity="0" result="BackgroundImageFix"/>
<feColorMatrix in="SourceAlpha" type="matrix" values="0 0 0 0 0 0 0 0 0 0 0 0 0 0 0 0 0 0 127 0" result="hardAlpha"/>
<feOffset/>
<feGaussianBlur stdDeviation="12.5"/>
<feComposite in2="hardAlpha" operator="out"/>
<feColorMatrix type="matrix" values="0 0 0 0 0.152941 0 0 0 0 0.498039 0 0 0 0 0.992157 0 0 0 0.25 0"/>
<feBlend mode="normal" in2="BackgroundImageFix" result="effect1_dropShadow_72_55"/>
<feBlend mode="normal" in="SourceGraphic" in2="effect1_dropShadow_72_55" result="shape"/>
</filter>
<filter id="filter3_d_72_55" x="1260.56" y="596.558" width="246.103" height="244.171" filterUnits="userSpaceOnUse" color-interpolation-filters="sRGB">
<feFlood flood-opacity="0" result="BackgroundImageFix"/>
<feColorMatrix in="SourceAlpha" type="matrix" values="0 0 0 0 0 0 0 0 0 0 0 0 0 0 0 0 0 0 127 0" result="hardAlpha"/>
<feMorphology radius="2" operator="dilate" in="SourceAlpha" result="effect1_dropShadow_72_55"/>
<feOffset/>
<feGaussianBlur stdDeviation="12.5"/>
<feComposite in2="hardAlpha" operator="out"/>
<feColorMatrix type="matrix" values="0 0 0 0 0.913725 0 0 0 0 0.168627 0 0 0 0 0.152941 0 0 0 0.5 0"/>
<feBlend mode="normal" in2="BackgroundImageFix" result="effect1_dropShadow_72_55"/>
<feBlend mode="normal" in="SourceGraphic" in2="effect1_dropShadow_72_55" result="shape"/>
</filter>
<filter id="filter4_d_72_55" x="1068.18" y="105.181" width="141.939" height="141.939" filterUnits="userSpaceOnUse" color-interpolation-filters="sRGB">
<feFlood flood-opacity="0" result="BackgroundImageFix"/>
<feColorMatrix in="SourceAlpha" type="matrix" values="0 0 0 0 0 0 0 0 0 0 0 0 0 0 0 0 0 0 127 0" result="hardAlpha"/>
<feMorphology radius="2" operator="dilate" in="SourceAlpha" result="effect1_dropShadow_72_55"/>
<feOffset/>
<feGaussianBlur stdDeviation="12.5"/>
<feComposite in2="hardAlpha" operator="out"/>
<feColorMatrix type="matrix" values="0 0 0 0 0.984314 0 0 0 0 0.729412 0 0 0 0 0.141176 0 0 0 0.25 0"/>
<feBlend mode="normal" in2="BackgroundImageFix" result="effect1_dropShadow_72_55"/>
<feBlend mode="normal" in="SourceGraphic" in2="effect1_dropShadow_72_55" result="shape"/>
</filter>
<filter id="filter5_d_72_55" x="1136.27" y="121.415" width="141.939" height="141.939" filterUnits="userSpaceOnUse" color-interpolation-filters="sRGB">
<feFlood flood-opacity="0" result="BackgroundImageFix"/>
<feColorMatrix in="SourceAlpha" type="matrix" values="0 0 0 0 0 0 0 0 0 0 0 0 0 0 0 0 0 0 127 0" result="hardAlpha"/>
<feMorphology radius="2" operator="dilate" in="SourceAlpha" result="effect1_dropShadow_72_55"/>
<feOffset/>
<feGaussianBlur stdDeviation="12.5"/>
<feComposite in2="hardAlpha" operator="out"/>
<feColorMatrix type="matrix" values="0 0 0 0 0.984314 0 0 0 0 0.729412 0 0 0 0 0.141176 0 0 0 0.25 0"/>
<feBlend mode="normal" in2="BackgroundImageFix" result="effect1_dropShadow_72_55"/>
<feBlend mode="normal" in="SourceGraphic" in2="effect1_dropShadow_72_55" result="shape"/>
</filter>
<linearGradient id="paint0_linear_72_55" x1="774" y1="-453.5" x2="783" y2="1051" gradientUnits="userSpaceOnUse">
<stop stop-color="#1030D8"/>
<stop offset="1" stop-color="#03023F"/>
</linearGradient>
<radialGradient id="paint1_radial_72_55" cx="0" cy="0" r="1" gradientUnits="userSpaceOnUse" gradientTransform="translate(431.5 974.608) rotate(-63.5673) scale(484.11 423.596)">
<stop stop-color="#1B1B5F"/>
<stop offset="0.484375" stop-color="#3F3FAB"/>
<stop offset="1" stop-color="#D6D6FF" stop-opacity="0.05"/>
</radialGradient>
<clipPath id="clip0_72_55">
<rect width="1512" height="982" fill="white"/>
</clipPath>
</defs>
</svg>
