<svg width="24" height="24" viewBox="0 0 24 24" fill="none" xmlns="http://www.w3.org/2000/svg">
<g clip-path="url(#clip0_54_24)">
<g filter="url(#filter0_d_54_24)">
<mask id="path-1-inside-1_54_24" fill="white">
<path d="M3.2 23L1 20.8L9.8 12L1 3.2L3.2 1L12 9.8L20.8 1L23 3.2L14.2 12L23 20.8L20.8 23L12 14.2L3.2 23Z"/>
</mask>
<path d="M3.2 23L1 20.8L9.8 12L1 3.2L3.2 1L12 9.8L20.8 1L23 3.2L14.2 12L23 20.8L20.8 23L12 14.2L3.2 23Z" fill="white"/>
<path d="M3.2 23L-3.87107 30.0711L3.2 37.1421L10.2711 30.0711L3.2 23ZM1 20.8L-6.07107 13.7289L-13.1421 20.8L-6.07107 27.8711L1 20.8ZM9.8 12L16.8711 19.0711L23.9421 12L16.8711 4.92893L9.8 12ZM1 3.2L-6.07107 -3.87107L-13.1421 3.2L-6.07107 10.2711L1 3.2ZM3.2 1L10.2711 -6.07107L3.2 -13.1421L-3.87107 -6.07107L3.2 1ZM12 9.8L4.92893 16.8711L12 23.9421L19.0711 16.8711L12 9.8ZM20.8 1L27.8711 -6.07107L20.8 -13.1421L13.7289 -6.07107L20.8 1ZM23 3.2L30.0711 10.2711L37.1421 3.2L30.0711 -3.87107L23 3.2ZM14.2 12L7.12893 4.92893L0.0578662 12L7.12893 19.0711L14.2 12ZM23 20.8L30.0711 27.8711L37.1421 20.8L30.0711 13.7289L23 20.8ZM20.8 23L13.7289 30.0711L20.8 37.1421L27.8711 30.0711L20.8 23ZM12 14.2L19.0711 7.12893L12 0.0578662L4.92893 7.12893L12 14.2ZM10.2711 15.9289L8.07107 13.7289L-6.07107 27.8711L-3.87107 30.0711L10.2711 15.9289ZM8.07107 27.8711L16.8711 19.0711L2.72893 4.92893L-6.07107 13.7289L8.07107 27.8711ZM16.8711 4.92893L8.07107 -3.87107L-6.07107 10.2711L2.72893 19.0711L16.8711 4.92893ZM8.07107 10.2711L10.2711 8.07107L-3.87107 -6.07107L-6.07107 -3.87107L8.07107 10.2711ZM-3.87107 8.07107L4.92893 16.8711L19.0711 2.72893L10.2711 -6.07107L-3.87107 8.07107ZM19.0711 16.8711L27.8711 8.07107L13.7289 -6.07107L4.92893 2.72893L19.0711 16.8711ZM13.7289 8.07107L15.9289 10.2711L30.0711 -3.87107L27.8711 -6.07107L13.7289 8.07107ZM15.9289 -3.87107L7.12893 4.92893L21.2711 19.0711L30.0711 10.2711L15.9289 -3.87107ZM7.12893 19.0711L15.9289 27.8711L30.0711 13.7289L21.2711 4.92893L7.12893 19.0711ZM15.9289 13.7289L13.7289 15.9289L27.8711 30.0711L30.0711 27.8711L15.9289 13.7289ZM27.8711 15.9289L19.0711 7.12893L4.92893 21.2711L13.7289 30.0711L27.8711 15.9289ZM4.92893 7.12893L-3.87107 15.9289L10.2711 30.0711L19.0711 21.2711L4.92893 7.12893Z" fill="white" mask="url(#path-1-inside-1_54_24)"/>
</g>
</g>
<defs>
<filter id="filter0_d_54_24" x="-3" y="-3" width="30" height="30" filterUnits="userSpaceOnUse" color-interpolation-filters="sRGB">
<feFlood flood-opacity="0" result="BackgroundImageFix"/>
<feColorMatrix in="SourceAlpha" type="matrix" values="0 0 0 0 0 0 0 0 0 0 0 0 0 0 0 0 0 0 127 0" result="hardAlpha"/>
<feOffset/>
<feGaussianBlur stdDeviation="2"/>
<feComposite in2="hardAlpha" operator="out"/>
<feColorMatrix type="matrix" values="0 0 0 0 1 0 0 0 0 1 0 0 0 0 1 0 0 0 0.25 0"/>
<feBlend mode="normal" in2="BackgroundImageFix" result="effect1_dropShadow_54_24"/>
<feBlend mode="normal" in="SourceGraphic" in2="effect1_dropShadow_54_24" result="shape"/>
</filter>
<clipPath id="clip0_54_24">
<rect width="24" height="24" fill="white"/>
</clipPath>
</defs>
</svg>
