<svg xmlns="http://www.w3.org/2000/svg" width="32" height="32" viewBox="0 0 32 32" fill="none">
  <path d="M13.9332 20.6667C14.4665 21.2 15.1554 21.4611 15.9998 21.45C16.8443 21.4389 17.4665 21.1333 17.8665 20.5333L25.3332 9.33333L14.1332 16.8C13.5332 17.2 13.2165 17.8111 13.1832 18.6333C13.1498 19.4556 13.3998 20.1333 13.9332 20.6667ZM15.9998 5.33333C17.3109 5.33333 18.5721 5.51666 19.7832 5.88333C20.9943 6.24999 22.1332 6.79999 23.1998 7.53333L20.6665 9.13333C19.9332 8.75555 19.1721 8.47222 18.3832 8.28333C17.5943 8.09444 16.7998 8 15.9998 8C13.0443 8 10.5276 9.03888 8.44984 11.1167C6.37206 13.1944 5.33317 15.7111 5.33317 18.6667C5.33317 19.6 5.46095 20.5222 5.7165 21.4333C5.97206 22.3444 6.33317 23.2 6.79984 24H25.1998C25.7109 23.1556 26.0832 22.2778 26.3165 21.3667C26.5498 20.4556 26.6665 19.5111 26.6665 18.5333C26.6665 17.7333 26.5721 16.9556 26.3832 16.2C26.1943 15.4444 25.9109 14.7111 25.5332 14L27.1332 11.4667C27.7998 12.5111 28.3276 13.6222 28.7165 14.8C29.1054 15.9778 29.3109 17.2 29.3332 18.4667C29.3554 19.7333 29.2109 20.9444 28.8998 22.1C28.5887 23.2556 28.1332 24.3556 27.5332 25.4C27.2887 25.8 26.9554 26.1111 26.5332 26.3333C26.1109 26.5556 25.6665 26.6667 25.1998 26.6667H6.79984C6.33317 26.6667 5.88873 26.5556 5.4665 26.3333C5.04428 26.1111 4.71095 25.8 4.4665 25.4C3.88873 24.4 3.44428 23.3389 3.13317 22.2167C2.82206 21.0944 2.6665 19.9111 2.6665 18.6667C2.6665 16.8222 3.0165 15.0944 3.7165 13.4833C4.4165 11.8722 5.37206 10.4611 6.58317 9.25C7.79428 8.03888 9.21095 7.08333 10.8332 6.38333C12.4554 5.68333 14.1776 5.33333 15.9998 5.33333Z" fill="white"/>
</svg>