<svg width="51" height="51" viewBox="0 0 51 51" fill="none" xmlns="http://www.w3.org/2000/svg">
<path d="M3 1.5H1.5V3V48V49.5H3H48H49.5V48V3V1.5H48H3Z" fill="url(#paint0_radial_5_177)" stroke="url(#paint1_linear_5_177)" stroke-width="3"/>
<g filter="url(#filter0_d_5_177)">
<path d="M22.9263 32.11V17.89C22.9263 16.54 22.442 16 21.2184 16H18.1341C16.9106 16 16.4263 16.54 16.4263 17.89V32.11C16.4263 33.46 16.9106 34 18.1341 34H21.2184C22.442 34 22.9263 33.46 22.9263 32.11Z" fill="white"/>
<path d="M34.4263 32.11V17.89C34.4263 16.54 33.942 16 32.7184 16H29.6341C28.4191 16 27.9263 16.54 27.9263 17.89V32.11C27.9263 33.46 28.4106 34 29.6341 34H32.7184C33.942 34 34.4263 33.46 34.4263 32.11Z" fill="white"/>
</g>
<defs>
<filter id="filter0_d_5_177" x="4.42627" y="9" width="38" height="38" filterUnits="userSpaceOnUse" color-interpolation-filters="sRGB">
<feFlood flood-opacity="0" result="BackgroundImageFix"/>
<feColorMatrix in="SourceAlpha" type="matrix" values="0 0 0 0 0 0 0 0 0 0 0 0 0 0 0 0 0 0 127 0" result="hardAlpha"/>
<feOffset dx="-2" dy="3"/>
<feGaussianBlur stdDeviation="5"/>
<feComposite in2="hardAlpha" operator="out"/>
<feColorMatrix type="matrix" values="0 0 0 0 1 0 0 0 0 1 0 0 0 0 1 0 0 0 0.25 0"/>
<feBlend mode="normal" in2="BackgroundImageFix" result="effect1_dropShadow_5_177"/>
<feBlend mode="normal" in="SourceGraphic" in2="effect1_dropShadow_5_177" result="shape"/>
</filter>
<radialGradient id="paint0_radial_5_177" cx="0" cy="0" r="1" gradientUnits="userSpaceOnUse" gradientTransform="translate(26.515 25.9245) rotate(-87.2893) scale(42.9254 43.434)">
<stop stop-color="#0066FF"/>
<stop offset="0.921875" stop-color="#87B7FF" stop-opacity="0.539062"/>
<stop offset="1" stop-color="#B8D4FF" stop-opacity="0.5"/>
</radialGradient>
<linearGradient id="paint1_linear_5_177" x1="25.3308" y1="60.7358" x2="25.3308" y2="-25.4434" gradientUnits="userSpaceOnUse">
<stop stop-color="white"/>
<stop offset="1" stop-color="#77BEFF"/>
<stop offset="1" stop-color="#387AB7"/>
</linearGradient>
</defs>
</svg>
